<?xml version="1.0" encoding="UTF-8" standalone="no"?>
<!-- Created with Inkscape (http://www.inkscape.org/) -->
<svg xmlns:svg="http://www.w3.org/2000/svg" xmlns="http://www.w3.org/2000/svg" xmlns:dc="http://purl.org/dc/elements/1.1/" xmlns:cc="http://web.resource.org/cc/" xmlns:rdf="http://www.w3.org/1999/02/22-rdf-syntax-ns#" version="1.0" width="476.823" height="511.29901" viewBox="0 0 476.823 511.299" id="Layer_1" xml:space="preserve"><defs id="defs82"/>



<g id="g5">
	<path d="M 38.709,242.874 C 38.709,376.974 127.341,485.729 236.673,485.729 C 345.969,485.729 434.601,376.973 434.601,242.874 C 434.601,108.774 345.969,0.018 236.673,0.018 C 127.341,0.018 38.709,108.774 38.709,242.874 L 38.709,242.874 z " style="fill-rule:evenodd;stroke:black;stroke-width:0.036;stroke-miterlimit:10" id="path7"/>
	<path d="M 42.921,243.306 C 42.921,375.174 130.041,482.13 237.501,482.13 C 344.96,482.13 432.081,375.174 432.081,243.306 C 432.081,111.402 344.961,4.446 237.501,4.446 C 130.041,4.446 42.921,111.402 42.921,243.306 L 42.921,243.306 z " style="fill:#897f7e;fill-rule:evenodd;stroke:black;stroke-width:0.036;stroke-miterlimit:10" id="path9"/>
	<path d="M 56.097,199.422 C 54.873,194.562 52.677,191.106 49.365,188.622 C 46.053,186.138 41.589,184.806 36.369,184.77 C 31.005,184.662 22.761,184.482 17.613,188.118 C 12.357,191.718 8.217,198.054 5.337,206.154 C 2.313,214.146 -0.279,225.954 0.045,235.746 C 0.333,245.502 2.349,256.878 7.497,263.897 C 12.573,270.809 24.489,275.238 30.609,276.641 C 36.549,277.757 40.149,274.662 43.353,271.097 C 46.521,267.497 48.429,262.205 49.365,255.221 L 49.365,255.221 L 56.097,199.422 L 56.097,199.422 z " style="fill-rule:evenodd;stroke:black;stroke-width:0.036;stroke-miterlimit:10" id="path11"/>
	<path d="M 50.085,259.326 C 49.509,257.49 48.789,256.734 47.925,256.914 C 47.061,257.166 46.017,258.318 44.793,260.514 C 43.353,262.638 41.805,266.922 39.753,269.19 C 37.629,271.279 36.045,273.079 32.769,273.043 C 29.385,272.863 24.381,271.063 20.277,268.471 C 16.137,265.736 11.061,262.099 8.253,257.419 C 5.301,252.667 3.753,247.015 3.177,240.319 L 3.177,240.319 C 2.853,239.095 3.069,236.287 3.681,231.895 C 4.293,227.359 5.229,219.583 7.029,213.859 C 8.793,207.955 11.025,201.583 14.013,197.515 C 16.965,193.447 20.493,190.891 24.597,189.559 C 28.485,188.047 34.137,188.587 37.809,188.839 C 41.337,189.019 44.001,189.667 46.233,190.783 C 48.357,191.863 50.013,193.303 51.057,195.103 C 52.101,196.723 51.741,199.747 52.497,200.863 C 53.181,201.907 54.009,202.195 55.125,201.583 C 56.133,200.863 57.213,199.603 58.509,197.263 L 58.509,197.263 C 55.701,217.926 52.893,238.626 50.085,259.326 L 50.085,259.326 z " style="fill:#897f7e;fill-rule:evenodd" id="path13"/>
	<path d="M 45.297,211.23 C 44.793,209.718 42.165,207.126 39.753,205.938 C 37.197,204.606 33.561,203.166 30.357,203.994 C 27.009,204.786 23.121,206.694 20.493,210.978 C 17.829,215.262 15.489,222.786 14.985,229.266 C 14.409,235.674 15.021,244.71 17.361,248.994 C 19.665,253.098 25.137,254.178 28.917,254.034 C 32.517,253.746 37.989,249.57 39.501,247.77 C 40.869,245.898 39.609,242.982 37.809,243.198 C 35.973,243.378 31.581,248.274 28.917,248.994 C 26.073,249.606 23.445,248.886 21.717,246.834 C 19.989,244.638 19.053,241.038 19.053,236.466 C 18.981,231.786 19.881,223.83 21.465,219.402 C 22.941,214.938 25.785,211.41 28.197,209.79 C 30.573,208.026 33.417,208.458 35.901,209.286 C 38.277,210.114 40.977,214.146 42.633,214.578 C 44.145,214.794 45.729,212.706 45.297,211.23 L 45.297,211.23 z " style="fill-rule:evenodd;stroke:black;stroke-width:0.036;stroke-miterlimit:10" id="path15"/>
	<path d="M 420.777,201.51 C 421.965,196.686 424.161,193.122 427.508,190.674 C 430.784,188.154 435.105,186.93 440.468,186.858 C 445.796,186.75 454.004,186.57 459.26,190.206 C 464.445,193.806 468.477,200.142 471.5,208.242 C 474.416,216.234 477.008,228.042 476.792,237.834 C 476.396,247.59 474.38,258.966 469.34,265.986 C 464.156,272.897 452.204,277.326 446.265,278.729 C 440.216,279.845 436.617,276.75 433.521,273.185 C 430.317,269.585 428.409,264.293 427.508,257.309 L 427.508,257.309 L 420.777,201.51 L 420.777,201.51 z " style="fill-rule:evenodd;stroke:black;stroke-width:0.036;stroke-miterlimit:10" id="path17"/>
	<path d="M 426.789,261.414 C 427.329,259.578 428.049,258.822 428.949,259.002 C 429.705,259.254 430.749,260.406 432.081,262.602 C 433.485,264.726 435.033,269.01 437.121,271.279 C 439.173,273.367 440.722,275.167 444.105,275.131 C 447.38,274.951 452.42,273.151 456.597,270.559 C 460.628,267.859 465.741,264.116 468.62,259.471 C 471.536,254.683 473.048,249.139 473.696,242.407 L 473.696,242.407 C 473.984,241.183 473.768,238.375 473.192,233.983 C 472.472,229.447 471.536,221.671 469.843,215.947 C 468.043,210.043 465.812,203.671 462.86,199.603 C 459.799,195.535 456.272,192.979 452.276,191.647 C 448.208,190.135 442.628,190.675 439.028,190.927 C 435.392,191.107 432.728,191.755 430.604,192.871 C 428.335,193.951 426.788,195.391 425.816,197.191 C 424.664,198.811 425.06,201.835 424.376,202.951 C 423.62,203.995 422.685,204.283 421.712,203.671 C 420.668,202.951 419.553,201.691 418.364,199.351 L 418.364,199.351 C 421.173,220.014 423.981,240.714 426.789,261.414 L 426.789,261.414 z " style="fill:#897f7e;fill-rule:evenodd" id="path19"/>
	<path d="M 431.577,213.318 C 432.009,211.806 434.601,209.214 437.121,208.026 C 439.569,206.694 443.241,205.254 446.481,206.082 C 449.756,206.874 453.645,208.782 456.344,213.066 C 458.865,217.35 461.313,224.874 461.889,231.354 C 462.357,237.762 461.781,246.798 459.477,251.082 C 457.029,255.186 451.664,256.266 447.956,256.122 C 444.248,255.834 438.776,251.658 437.372,249.858 C 435.968,247.986 437.12,245.07 439.028,245.286 C 440.756,245.466 445.22,250.362 447.956,251.082 C 450.656,251.622 453.428,250.938 455.156,248.886 C 456.812,246.654 457.64,243.162 457.784,238.554 C 457.712,233.874 456.92,225.918 455.408,221.49 C 453.86,216.918 451.016,213.57 448.676,211.842 C 446.193,210.042 443.349,210.582 440.973,211.374 C 438.489,212.202 435.825,216.234 434.241,216.666 C 432.621,216.882 431.037,214.794 431.577,213.318 L 431.577,213.318 z " style="fill-rule:evenodd;stroke:black;stroke-width:0.036;stroke-miterlimit:10" id="path21"/>
	<path d="M 142.713,204.786 C 142.713,211.41 148.689,216.81 156.033,216.81 C 163.377,216.81 169.353,211.41 169.353,204.786 C 169.353,198.162 163.377,192.762 156.033,192.762 C 148.689,192.762 142.713,198.162 142.713,204.786 L 142.713,204.786 z " style="fill-rule:evenodd;stroke:black;stroke-width:0.036;stroke-miterlimit:10" id="path23"/>
	<path d="M 149.445,202.59 C 149.445,204.606 151.065,206.226 153.045,206.226 C 155.061,206.226 156.681,204.606 156.681,202.59 C 156.681,200.61 155.061,198.99 153.045,198.99 C 151.065,198.99 149.445,200.61 149.445,202.59 L 149.445,202.59 z " style="fill:white;fill-rule:evenodd;stroke:black;stroke-width:0.036;stroke-miterlimit:10" id="path25"/>
	<path d="M 120.861,147.546 C 125.505,146.394 135.045,145.098 141.993,144.774 C 149.013,144.378 157.113,144.63 162.261,145.386 C 167.229,146.106 171.549,147.978 171.873,149.202 C 171.945,150.39 168.057,152.226 163.521,152.478 C 158.913,152.586 151.137,150.03 144.909,150.066 C 138.501,149.994 130.977,151.542 126.081,152.37 C 121.077,153.198 117.693,154.782 115.641,154.746 C 113.553,154.494 112.905,152.658 113.841,151.47 C 114.705,150.21 116.073,148.626 120.861,147.546 L 120.861,147.546 z " style="fill-rule:evenodd;stroke:black;stroke-width:0.036;stroke-miterlimit:10" id="path27"/>
	<path d="M 328.581,205.038 C 328.581,211.554 322.605,216.81 315.261,216.81 C 307.881,216.81 301.942,211.554 301.942,205.038 C 301.942,198.522 307.881,193.266 315.261,193.266 C 322.605,193.266 328.581,198.522 328.581,205.038 L 328.581,205.038 z " style="fill-rule:evenodd;stroke:black;stroke-width:0.036;stroke-miterlimit:10" id="path29"/>
	<path d="M 317.961,202.842 C 317.961,204.858 316.341,206.478 314.361,206.478 C 312.345,206.478 310.725,204.858 310.725,202.842 C 310.725,200.862 312.345,199.206 314.361,199.206 C 316.341,199.206 317.961,200.862 317.961,202.842 L 317.961,202.842 z " style="fill:white;fill-rule:evenodd;stroke:black;stroke-width:0.036;stroke-miterlimit:10" id="path31"/>
	<path d="M 359.109,148.914 C 354.753,147.366 346.473,145.098 340.101,144.198 C 333.657,143.118 326.205,142.65 321.489,142.938 C 316.809,143.19 312.453,144.63 312.165,145.854 C 311.733,147.042 315.297,149.202 319.401,149.85 C 323.505,150.354 330.957,148.554 336.753,149.166 C 342.441,149.67 349.245,151.938 353.673,153.198 C 358.102,154.458 360.909,156.366 362.925,156.546 C 364.797,156.51 365.589,154.638 365.014,153.414 C 364.365,152.01 363.177,150.462 359.109,148.914 L 359.109,148.914 z " style="fill-rule:evenodd;stroke:black;stroke-width:0.036;stroke-miterlimit:10" id="path33"/>
	<path d="M 124.677,428.273 C 121.257,425.538 113.697,416.826 108.945,411.03 C 104.013,405.09 97.677,396.269 96.309,393.462 C 95.049,390.654 98.253,391.302 101.349,394.29 C 104.373,397.242 109.485,405.414 114.165,411.03 C 118.629,416.429 126.873,424.206 128.637,427.122 C 130.329,429.966 127.989,430.902 124.677,428.273 L 124.677,428.273 z " style="fill-rule:evenodd;stroke:black;stroke-width:0.036;stroke-miterlimit:10" id="path35"/>
	<path d="M 131.337,433.35 C 131.985,434.538 135.657,437.995 136.953,438.462 C 138.141,438.678 139.257,436.41 138.645,435.258 C 137.889,434.034 133.929,431.946 132.741,431.622 C 131.481,431.262 130.545,432.162 131.337,433.35 L 131.337,433.35 z " style="fill-rule:evenodd;stroke:black;stroke-width:0.036;stroke-miterlimit:10" id="path37"/>
	<path d="M 89.901,383.778 C 90.225,385.038 92.889,389.538 94.005,390.185 C 95.085,390.725 96.741,388.818 96.453,387.521 C 95.985,386.082 92.781,383.093 91.701,382.446 C 90.477,381.834 89.505,382.41 89.901,383.778 L 89.901,383.778 z " style="fill-rule:evenodd;stroke:black;stroke-width:0.036;stroke-miterlimit:10" id="path39"/>
	<path d="M 151.245,460.098 C 147.033,457.363 144.801,453.619 144.693,448.867 C 144.585,444.043 146.313,438.319 150.309,431.551 L 150.309,431.551 C 148.365,424.747 147.537,418.807 147.969,413.299 C 148.365,407.791 149.877,403.003 152.649,398.791 L 152.649,398.791 C 151.713,394.579 151.713,390.942 152.649,388.026 C 153.585,384.966 155.457,382.77 158.265,381.006 L 158.265,381.006 C 156.501,375.102 155.925,370.278 156.393,365.994 C 156.861,361.746 158.373,358.362 161.073,355.698 L 161.073,355.698 C 159.597,350.046 159.849,345.402 161.541,341.189 C 163.233,336.941 166.509,333.702 171.369,330.893 L 171.369,330.893 C 171.513,327.509 172.737,324.702 174.645,322.469 C 176.553,320.129 179.361,318.545 183.069,317.322 L 183.069,317.322 C 186.561,310.662 190.593,305.981 195.705,303.282 C 200.709,300.473 206.397,299.826 213.057,300.941 L 213.057,300.941 C 214.641,299.105 218.025,298.349 223.353,298.133 C 228.681,297.989 235.809,298.565 244.881,300.005 L 244.881,300.005 C 252.19,297.809 258.453,296.873 264.069,297.197 C 269.577,297.485 274.257,298.997 278.109,301.877 L 278.109,301.877 C 285.237,302.453 290.493,303.605 294.021,305.621 C 297.548,307.6 299.168,310.157 299.168,313.577 L 299.168,313.577 C 306.008,315.52 310.4,317.969 312.74,321.064 C 314.972,324.161 314.972,327.617 312.74,331.829 L 312.74,331.829 C 317.42,334.997 320.336,338.165 321.632,341.188 C 322.857,344.249 322.389,347.165 320.229,350.081 L 320.229,350.081 C 323.252,353.753 325.233,357.821 326.313,362.285 C 327.321,366.713 327.321,371.501 326.313,376.793 L 326.313,376.793 C 329.3,381.257 331.065,385.577 331.46,389.897 C 331.856,394.253 330.92,398.286 328.652,402.534 L 328.652,402.534 C 332.54,408.294 334.7,413.55 335.672,418.446 C 336.5,423.269 335.924,427.59 333.8,431.55 L 333.8,431.55 C 337.04,435.546 338.769,439.038 339.416,442.314 C 339.956,445.482 339.128,448.291 337.076,450.739 L 337.076,450.739 C 339.56,455.274 340.316,460.35 339.885,466.65 C 339.345,472.77 337.544,482.886 333.8,487.711 C 329.876,492.463 324.441,494.911 316.952,495.199 L 316.952,495.199 C 317.204,498.655 316.053,501.102 313.208,502.686 C 310.328,504.27 306.008,504.846 300.104,504.558 L 300.104,504.558 C 298.339,507.546 294.488,509.526 288.404,510.642 C 282.104,511.686 272.996,511.146 263.6,511.111 C 254.096,511.039 240.056,511.327 232.712,510.174 C 225.332,508.95 221.3,506.718 220.076,503.622 L 220.076,503.622 C 215.324,505.782 211.256,506.718 207.872,506.43 C 204.344,506.106 201.68,504.594 199.484,501.75 L 199.484,501.75 C 192.176,502.578 186.596,502.578 182.6,501.75 C 178.496,500.813 176.336,499.229 175.58,496.602 L 175.58,496.602 C 167.948,495.81 162.584,494.694 159.2,492.858 C 155.78,491.022 154.628,488.682 155.456,485.838 L 155.456,485.838 C 150.776,483.822 148.256,480.834 147.5,476.478 C 146.853,472.122 147.969,466.794 151.245,460.098 L 151.245,460.098 z " style="fill-rule:evenodd;stroke:black;stroke-width:0.036;stroke-miterlimit:10" id="path41"/>
	<path d="M 156.393,458.226 C 151.389,456.283 148.869,453.258 148.437,448.867 C 148.005,444.474 149.877,438.858 154.053,432.018 L 154.053,432.018 C 151.173,426.367 149.877,420.75 150.309,415.17 C 150.705,409.518 152.685,403.902 156.393,398.322 L 156.393,398.322 C 154.341,395.334 153.873,392.525 154.989,389.897 C 156.105,387.233 158.661,384.786 162.945,382.41 L 162.945,382.41 C 159.741,377.225 158.337,372.437 158.733,367.902 C 159.165,363.33 161.253,359.154 165.285,355.229 L 165.285,355.229 C 162.693,350.622 162.225,346.662 163.881,343.061 C 165.501,339.389 169.245,336.366 175.113,333.702 L 175.113,333.702 C 174.465,329.813 175.041,326.79 176.985,324.342 C 178.893,321.858 181.917,320.238 186.345,319.195 L 186.345,319.195 C 189.297,312.535 193.149,307.854 198.045,305.155 C 202.941,302.346 208.629,301.699 215.397,302.814 L 215.397,302.814 C 216.981,300.978 220.365,300.222 225.693,300.006 C 231.021,299.862 238.149,300.438 247.221,301.878 L 247.221,301.878 C 253.773,300.222 259.353,299.646 264.536,300.006 C 269.684,300.366 273.86,301.77 277.64,304.218 L 277.64,304.218 C 282.932,304.002 286.856,304.83 289.808,306.558 C 292.652,308.214 294.415,310.914 294.955,314.514 L 294.955,314.514 C 301.795,316.458 306.187,318.907 308.527,322.002 C 310.758,325.098 310.758,328.554 308.527,332.766 L 308.527,332.766 C 313.207,335.934 316.123,339.102 317.419,342.126 C 318.644,345.186 318.175,348.102 316.016,351.018 L 316.016,351.018 C 319.039,354.69 321.02,358.758 322.1,363.222 C 323.108,367.651 323.108,372.438 322.1,377.73 L 322.1,377.73 C 325.087,382.194 326.852,386.514 327.247,390.834 C 327.643,395.189 326.707,399.222 324.439,403.47 L 324.439,403.47 C 328.327,409.23 330.487,414.487 331.459,419.382 C 332.287,424.206 331.711,428.526 329.587,432.486 L 329.587,432.486 C 332.827,436.481 334.556,439.973 335.203,443.25 C 335.743,446.418 334.915,449.226 332.863,451.674 L 332.863,451.674 C 335.131,456.354 336.067,461.611 335.671,467.586 C 335.239,473.562 334.268,483.21 330.524,487.242 C 326.636,491.166 320.804,492.318 312.74,490.986 L 312.74,490.986 C 312.992,494.441 311.84,496.889 308.996,498.473 C 306.116,500.057 301.796,500.633 295.892,500.345 L 295.892,500.345 C 297.44,503.729 295.675,506.07 290.744,507.366 C 285.597,508.59 275.336,507.87 265.94,507.834 C 256.436,507.762 242.396,508.05 235.052,506.897 C 227.672,505.673 223.64,503.441 222.416,500.345 L 222.416,500.345 C 217.628,502.505 213.704,503.441 210.212,503.154 C 206.72,502.83 203.912,501.318 201.788,498.473 L 201.788,498.473 C 194.408,499.301 188.972,499.301 184.94,498.473 C 180.944,497.537 178.604,495.953 177.92,493.326 L 177.92,493.326 C 170.288,492.534 164.924,491.418 161.54,489.582 C 158.12,487.746 156.968,485.406 157.796,482.561 L 157.796,482.561 C 153.008,481.553 150.56,479.105 150.308,475.074 C 150.093,471.006 152.073,465.39 156.393,458.226 L 156.393,458.226 z " style="fill:#404040;fill-rule:evenodd" id="path43"/>
	<path d="M 189.153,343.998 C 193.545,358.326 198.333,369.918 203.661,379.602 C 208.881,389.142 213.741,396.27 221.013,401.13 C 228.393,405.882 238.617,408.366 247.221,408.15 C 255.788,407.827 265.328,405.558 271.557,399.258 C 277.533,392.85 279.945,379.422 283.256,370.206 C 286.496,360.918 289.196,352.278 291.212,343.998 L 291.212,343.998 C 277.46,348.065 262.448,350.046 245.349,350.082 C 228.213,350.046 209.709,348.065 189.153,343.998 L 189.153,343.998 z " style="fill-rule:evenodd;stroke:black;stroke-width:0.036;stroke-miterlimit:10" id="path45"/>
	<path d="M 194.769,348.678 C 200.169,350.298 206.649,351.414 214.893,352.422 C 223.065,353.358 234.405,353.934 243.477,354.294 C 252.441,354.582 261.081,355.086 268.281,354.294 C 275.445,353.357 281.241,351.773 286.065,349.146 L 286.065,349.146 L 278.109,373.518 L 278.109,373.518 C 270.513,376.398 263.061,378.27 255.176,379.134 C 247.292,379.998 240.164,380.358 231.308,378.666 C 222.38,376.83 212.588,373.446 201.788,368.37 L 201.788,368.37 C 199.449,361.818 197.109,355.266 194.769,348.678 L 194.769,348.678 z " style="fill:white;fill-rule:evenodd;stroke:black;stroke-width:0.036;stroke-miterlimit:10" id="path47"/>
	<path d="M 205.065,374.454 C 206.577,379.422 209.349,383.958 213.525,388.494 C 217.629,392.994 224.433,398.357 229.905,401.13 C 235.197,403.722 240.129,404.91 245.817,404.406 C 251.505,403.83 258.884,402.389 264.069,397.853 C 269.181,393.137 273.141,386.261 276.237,376.793 L 276.237,376.793 C 271.521,379.925 265.437,381.905 257.985,382.877 C 250.353,383.849 240.165,383.741 231.309,382.409 C 222.381,380.934 213.777,378.378 205.065,374.454 L 205.065,374.454 z " style="fill:white;fill-rule:evenodd;stroke:black;stroke-width:0.036;stroke-miterlimit:10" id="path49"/>
	<path d="M 185.877,363.654 C 186.525,367.794 190.017,381.473 193.833,389.429 C 197.469,397.242 204.237,406.853 207.873,410.49 C 211.329,413.91 214.965,411.641 214.893,410.49 C 214.641,409.302 210.249,406.962 207.405,403.469 C 204.525,399.797 200.889,395.333 198.045,388.961 C 195.093,382.445 192.069,369.305 190.089,365.093 C 187.965,360.81 185.265,359.586 185.877,363.654 L 185.877,363.654 z " style="fill-rule:evenodd;stroke:black;stroke-width:0.036;stroke-miterlimit:10" id="path51"/>
	<path d="M 220.545,411.894 C 219.609,411.498 217.089,413.911 217.269,414.703 C 217.521,415.459 221.301,417.007 221.949,416.575 C 222.417,416.07 221.301,412.146 220.545,411.894 L 220.545,411.894 z " style="fill-rule:evenodd;stroke:black;stroke-width:0.036;stroke-miterlimit:10" id="path53"/>
	<path d="M 231.309,417.042 C 233.181,418.014 238.185,418.59 243.009,418.914 C 247.797,419.021 254.709,419.634 259.858,417.977 C 264.898,416.141 271.341,410.381 272.962,408.618 C 274.223,406.818 271.055,406.782 268.75,407.681 C 266.41,408.618 263.494,412.362 259.858,413.765 C 256.042,414.917 252.009,415.205 247.222,415.169 C 242.362,415.024 234.477,412.973 231.778,413.297 C 229.113,413.622 229.329,416.034 231.309,417.042 L 231.309,417.042 z " style="fill-rule:evenodd;stroke:black;stroke-width:0.036;stroke-miterlimit:10" id="path55"/>
	<path d="M 270.153,495.666 C 273.141,495.126 277.965,495.558 283.257,494.729 C 288.442,493.721 296.974,491.994 301.509,490.517 C 305.974,488.897 308.602,485.91 309.934,485.837 C 311.158,485.801 311.301,488.789 308.997,490.517 C 306.621,492.246 301.329,494.441 295.893,496.133 C 290.241,497.753 281.42,499.517 276.237,499.877 C 271.053,500.057 266.445,498.257 265.473,497.537 C 264.465,496.782 267.129,496.062 270.153,495.666 L 270.153,495.666 z " style="fill-rule:evenodd;stroke:black;stroke-width:0.036;stroke-miterlimit:10" id="path57"/>
	<path d="M 163.305,476.298 C 166.005,477.414 170.001,480.402 174.897,482.49 C 179.757,484.542 187.965,487.53 192.573,488.681 C 197.145,489.761 200.997,488.465 202.185,489.221 C 203.085,489.906 201.861,492.353 198.909,492.677 C 195.921,492.822 190.305,492.03 184.833,490.446 C 179.289,488.717 170.613,485.622 166.185,483.101 C 161.649,480.437 158.841,476.513 158.337,475.362 C 157.797,474.21 160.425,475.038 163.305,476.298 L 163.305,476.298 z " style="fill-rule:evenodd;stroke:black;stroke-width:0.036;stroke-miterlimit:10" id="path59"/>
	<path d="M 209.493,489.474 C 208.557,489.546 207.333,492.823 207.909,493.47 C 208.413,493.974 212.625,493.615 212.913,492.966 C 213.093,492.174 210.285,489.438 209.493,489.474 L 209.493,489.474 z " style="fill-rule:evenodd;stroke:black;stroke-width:0.036;stroke-miterlimit:10" id="path61"/>
	<path d="M 255.825,496.025 C 254.889,496.097 253.665,499.374 254.241,500.021 C 254.745,500.525 258.957,500.166 259.245,499.517 C 259.425,498.726 256.617,495.99 255.825,496.025 L 255.825,496.025 z " style="fill-rule:evenodd;stroke:black;stroke-width:0.036;stroke-miterlimit:10" id="path63"/>
	<path d="M 315.837,481.806 C 315.297,482.418 316.701,485.73 317.566,485.766 C 318.322,485.694 320.95,482.491 320.734,481.842 C 320.266,481.122 316.413,481.158 315.837,481.806 L 315.837,481.806 z " style="fill-rule:evenodd;stroke:black;stroke-width:0.036;stroke-miterlimit:10" id="path65"/>
	<path d="M 236.637,201.726 C 234.009,209.826 227.637,217.458 217.521,224.766 C 207.261,232.11 191.025,241.902 175.761,245.394 C 160.245,248.706 139.977,247.194 126.225,244.89 C 112.509,242.37 102.033,235.818 94.509,231.21 C 86.985,226.674 85.365,223.326 81.729,217.818 C 78.057,212.058 74.961,204.102 72.837,197.694 C 70.677,191.214 69.093,185.382 68.481,179.658 L 68.481,179.658 C 65.061,181.926 61.569,182.826 58.005,182.502 C 54.297,182.106 50.193,178.902 46.809,177.354 C 43.389,175.626 40.401,174.222 37.701,172.71 L 37.701,172.71 C 37.737,176.022 36.837,178.902 35.397,181.206 C 33.849,183.546 31.293,185.634 28.557,186.642 C 25.605,187.506 20.817,187.866 18.513,186.894 C 16.209,185.778 15.273,182.97 14.877,180.702 C 14.445,178.398 15.093,175.302 15.561,173.214 C 15.849,170.946 16.173,169.326 16.677,167.814 L 16.677,167.814 C 16.785,164.034 17.829,160.902 19.665,158.022 C 21.501,155.106 23.985,152.046 27.657,150.786 C 31.221,149.418 35.757,149.202 41.121,150.282 C 46.449,151.434 54.873,155.466 59.589,157.518 C 64.161,159.426 66.825,159.858 68.949,161.874 C 71.073,163.782 72.045,166.194 72.153,169.11 L 72.153,169.11 C 72.801,168.246 73.881,167.598 75.105,166.77 C 76.185,165.942 76.833,164.898 79.677,164.466 C 82.701,163.998 86.805,163.782 92.673,163.962 L 92.673,163.962 C 123.705,163.926 154.737,163.926 187.173,163.962 C 219.645,163.926 251.901,163.926 285.741,163.962 L 285.741,163.962 L 380.241,163.962 L 380.241,163.962 C 386.073,163.782 390.177,163.998 393.237,164.466 C 395.973,164.898 396.657,165.942 397.809,166.77 C 398.997,167.598 400.077,168.246 400.76,169.11 L 400.76,169.11 C 400.832,166.194 401.805,163.782 403.964,161.874 C 405.981,159.858 408.681,159.426 413.324,157.518 C 417.932,155.466 426.356,151.434 431.792,150.282 C 437.084,149.202 441.62,149.418 445.256,150.786 C 448.82,152.046 451.305,155.106 453.248,158.022 C 455.048,160.902 456.092,164.034 456.236,167.814 L 456.236,167.814 C 456.704,169.326 457.028,170.946 457.352,173.214 C 457.711,175.302 458.396,178.398 458.036,180.702 C 457.568,182.97 456.632,185.778 454.4,186.894 C 451.988,187.866 447.2,187.506 444.356,186.642 C 441.512,185.634 438.956,183.546 437.516,181.206 C 436.039,178.902 435.14,176.022 435.211,172.71 L 435.211,172.71 C 432.476,174.222 429.487,175.626 426.104,177.354 C 422.612,178.902 418.507,182.106 414.908,182.502 C 411.272,182.826 407.78,181.926 404.432,179.658 L 404.432,179.658 C 403.784,185.382 402.2,191.214 400.076,197.694 C 397.845,204.102 394.784,212.058 391.184,217.818 C 387.44,223.326 385.82,226.674 378.404,231.21 C 370.772,235.818 360.332,242.37 346.688,244.89 C 332.864,247.194 312.56,248.706 297.152,245.394 C 281.852,241.902 265.472,232.11 255.392,224.766 C 245.241,217.458 239.085,209.826 236.637,201.726 L 236.637,201.726 z M 92.781,189.378 C 93.249,192.762 94.869,196.182 97.641,199.782 C 100.377,203.31 102.969,207.198 109.305,210.762 C 115.605,214.218 125.433,218.682 135.045,220.662 C 144.549,222.462 155.493,223.758 165.933,222.03 C 176.265,220.122 187.893,215.766 196.533,210.222 C 205.101,204.678 211.725,197.73 216.945,189.09 L 216.945,189.09 C 175.581,189.162 134.181,189.27 92.781,189.378 L 92.781,189.378 z M 380.241,189.378 C 379.737,192.762 378.117,196.182 375.381,199.782 C 372.537,203.31 369.945,207.198 363.717,210.762 C 357.346,214.218 347.518,218.682 337.978,220.662 C 328.438,222.462 317.457,223.758 307.125,222.03 C 296.686,220.122 285.129,215.766 276.489,210.222 C 267.885,204.678 261.225,197.73 256.077,189.09 L 256.077,189.09 C 297.441,189.162 338.841,189.27 380.241,189.378 L 380.241,189.378 z " style="fill-rule:evenodd;stroke:black;stroke-width:0.036;stroke-miterlimit:10" id="path67"/>
	<path d="M 55.989,159.786 C 53.253,158.202 50.373,156.906 47.349,155.754 C 44.181,154.422 40.797,153.126 37.737,152.838 C 34.533,152.442 31.293,153.342 28.989,154.17 C 26.613,154.998 25.749,155.826 24.165,158.058 C 22.545,160.326 20.745,163.746 19.737,167.202 C 18.657,170.406 17.901,174.834 17.901,177.57 C 17.757,180.198 17.721,181.89 19.305,182.934 C 20.781,183.906 24.849,184.122 27.189,183.438 C 29.565,182.574 31.617,180.63 33.201,178.182 C 34.677,175.734 35.649,172.602 36.117,168.786 L 36.117,168.786 C 40.869,171.126 45.261,173.07 49.293,174.762 C 53.325,176.418 57.141,178.506 60.201,178.686 C 63.117,178.758 65.745,177.426 67.113,175.518 C 68.409,173.538 68.841,169.29 67.869,167.094 C 66.645,164.79 62.397,163.134 60.417,161.982 C 58.437,160.794 56.961,159.966 55.989,159.786 L 55.989,159.786 z " style="fill:#886349;fill-rule:evenodd;stroke:black;stroke-width:0.036;stroke-miterlimit:10" id="path69"/>
	<path d="M 417.717,159.786 C 420.417,158.202 423.297,156.906 426.358,155.754 C 429.418,154.422 432.801,153.126 435.969,152.838 C 439.066,152.442 442.306,153.342 444.718,154.17 C 446.949,154.998 447.921,155.826 449.577,158.058 C 451.125,160.326 452.817,163.746 453.97,167.202 C 454.942,170.406 455.698,174.834 455.806,177.57 C 455.841,180.198 455.877,181.89 454.402,182.934 C 452.782,183.906 448.822,184.122 446.554,183.438 C 444.142,182.574 441.946,180.63 440.505,178.182 C 438.957,175.734 437.985,172.602 437.589,168.786 L 437.589,168.786 C 432.801,171.126 428.409,173.07 424.413,174.762 C 420.273,176.418 416.457,178.506 413.505,178.686 C 410.482,178.758 407.854,177.426 406.593,175.518 C 405.19,173.538 404.757,169.29 405.837,167.094 C 406.953,164.79 411.201,163.134 413.289,161.982 C 415.233,160.794 416.709,159.966 417.717,159.786 L 417.717,159.786 z " style="fill:#886349;fill-rule:evenodd;stroke:black;stroke-width:0.036;stroke-miterlimit:10" id="path71"/>
	<path d="M 224.037,169.11 L 95.445,168.858 L 95.445,168.858 C 91.593,168.606 88.389,168.606 85.545,168.858 C 82.701,168.966 80.181,169.434 78.525,170.262 C 76.797,171.162 75.861,171.81 75.033,174.006 C 74.097,176.094 72.765,178.686 72.981,182.61 C 73.053,186.354 73.341,190.71 75.645,196.794 C 77.805,202.95 80.685,212.274 86.373,218.934 C 92.205,225.378 101.529,231.39 109.881,235.458 C 118.053,239.346 126.009,241.47 135.405,242.658 C 144.801,243.702 157.617,243.306 165.933,242.442 C 174.141,241.506 177.201,240.318 184.257,237.762 C 191.169,235.026 200.817,230.814 207.369,227.07 C 213.741,223.218 218.709,219.294 222.813,215.442 C 226.881,211.59 229.329,207.63 231.669,204.246 C 233.865,200.754 235.377,197.91 236.205,195.174 L 236.205,195.174 C 236.997,197.91 238.509,200.754 240.741,204.246 C 242.973,207.63 245.421,211.59 249.597,215.442 C 253.557,219.294 258.668,223.218 265.076,227.07 C 271.556,230.814 281.097,235.026 288.152,237.762 C 295.1,240.318 298.196,241.506 306.476,242.442 C 314.684,243.306 327.499,243.702 337.003,242.658 C 346.363,241.47 354.283,239.346 362.564,235.458 C 370.808,231.39 380.204,225.378 386.036,218.934 C 391.652,212.274 394.532,202.95 396.765,196.794 C 398.996,190.71 399.285,186.354 399.429,182.61 C 399.536,178.686 398.204,176.094 397.376,174.006 C 396.477,171.81 395.504,171.162 393.885,170.262 C 392.12,169.434 389.601,168.966 386.864,168.858 C 383.984,168.606 380.78,168.606 376.964,168.858 L 376.964,168.858 L 248.372,169.11 L 224.037,169.11 L 224.037,169.11 z M 222.561,184.878 L 87.561,184.878 L 87.561,184.878 C 88.929,191.358 91.341,196.974 94.797,202.158 C 98.217,207.27 102.321,211.698 108.081,215.442 C 113.841,219.042 119.925,221.886 128.853,223.83 C 137.745,225.774 150.417,227.61 160.641,226.854 C 170.757,225.954 181.341,221.562 188.901,218.682 C 196.353,215.802 199.917,213.57 204.993,209.61 C 209.889,205.398 215.433,198.63 218.421,194.454 C 221.337,190.278 222.669,187.182 222.561,184.878 L 222.561,184.878 z M 250.425,184.878 L 385.39,184.878 L 385.39,184.878 C 383.986,191.358 381.574,196.974 378.154,202.158 C 374.626,207.27 370.522,211.698 364.87,215.442 C 359.002,219.042 352.954,221.886 344.099,223.83 C 335.099,225.774 322.462,227.61 312.311,226.854 C 302.123,225.954 291.502,221.562 284.05,218.682 C 276.49,215.802 272.926,213.57 267.958,209.61 C 262.99,205.398 257.41,198.63 254.53,194.454 C 251.577,190.278 250.209,187.182 250.425,184.878 L 250.425,184.878 z " style="fill:#886349;fill-rule:evenodd" id="path73"/>
	<path d="M 358.642,421.218 C 361.917,418.447 369.621,409.842 374.41,404.01 C 379.126,398.071 385.642,389.25 387.01,386.442 C 388.162,383.634 384.994,384.283 381.971,387.27 C 378.874,390.294 373.727,398.323 369.155,403.974 C 364.583,409.482 356.339,417.078 354.683,420.102 C 352.917,422.981 355.257,423.81 358.642,421.218 L 358.642,421.218 z " style="fill-rule:evenodd;stroke:black;stroke-width:0.036;stroke-miterlimit:10" id="path75"/>
	<path d="M 352.018,426.33 C 351.19,427.518 347.589,430.974 346.366,431.441 C 345.106,431.693 343.954,429.318 344.71,428.202 C 345.358,426.977 349.318,424.889 350.614,424.565 C 351.766,424.313 352.701,425.034 352.018,426.33 L 352.018,426.33 z " style="fill-rule:evenodd;stroke:black;stroke-width:0.036;stroke-miterlimit:10" id="path77"/>
	<path d="M 393.417,376.722 C 392.985,377.982 390.321,382.482 389.313,383.13 C 388.161,383.67 386.433,381.762 386.901,380.466 C 387.333,379.098 390.393,376.074 391.617,375.426 C 392.733,374.742 393.705,375.354 393.417,376.722 L 393.417,376.722 z " style="fill-rule:evenodd;stroke:black;stroke-width:0.036;stroke-miterlimit:10" id="path79"/>
</g>
<metadata><rdf:RDF><cc:Work><dc:format>image/svg+xml</dc:format><dc:type rdf:resource="http://purl.org/dc/dcmitype/StillImage"/><cc:license rdf:resource="http://creativecommons.org/licenses/publicdomain/"/><dc:publisher><cc:Agent rdf:about="http://openclipart.org/"><dc:title>Open Clip Art Library</dc:title></cc:Agent></dc:publisher><dc:title>Man Face Cartoon</dc:title><dc:date>2006-10-18T10:53:17</dc:date><dc:description>Uploaded by "World Label" for conversion to SVG and publication on OCAL.</dc:description><dc:source>http://openclipart.org/detail/732/man-face-cartoon-by-gerald_g-732</dc:source><dc:creator><cc:Agent><dc:title>Gerald_G</dc:title></cc:Agent></dc:creator><dc:subject><rdf:Bag><rdf:li>cartoon</rdf:li><rdf:li>clip art</rdf:li><rdf:li>clipart</rdf:li><rdf:li>externalsource</rdf:li><rdf:li>face</rdf:li><rdf:li>man</rdf:li><rdf:li>people</rdf:li><rdf:li>remix</rdf:li><rdf:li>worldlabel</rdf:li></rdf:Bag></dc:subject></cc:Work><cc:License rdf:about="http://creativecommons.org/licenses/publicdomain/"><cc:permits rdf:resource="http://creativecommons.org/ns#Reproduction"/><cc:permits rdf:resource="http://creativecommons.org/ns#Distribution"/><cc:permits rdf:resource="http://creativecommons.org/ns#DerivativeWorks"/></cc:License></rdf:RDF></metadata></svg>
